<svg width="184" height="160" viewBox="0 0 184 160" fill="none" xmlns="http://www.w3.org/2000/svg">
<g clip-path="url(#clip0_11_693)">
<path d="M184 77.7326C184 113.329 152.716 143.336 110.028 152.548C103.096 154.04 96.0526 154.962 88.9698 155.303C88.6253 155.32 88.2807 155.337 87.9337 155.349C86.0904 155.426 84.2332 155.464 82.3621 155.465C79.1087 155.465 75.8939 155.349 72.7176 155.118C70.9555 154.992 69.2082 154.832 67.4756 154.637C50.6255 152.745 35.119 147.692 22.0217 140.288C20.3851 139.364 18.7872 138.403 17.2277 137.406C14.3721 135.586 11.6152 133.615 8.96868 131.502C-8.52629 117.543 6.05985 87.7455 15.1777 68.9862C39.7874 18.3552 26.2299 0 82.3621 0C138.494 0 184 34.8011 184 77.7326Z" fill="#F2F2F2"/>
<path d="M110.779 70.7275C93.3329 70.4143 93.3356 44.4573 110.78 44.1467C128.226 44.4599 128.223 70.4168 110.779 70.7275Z" fill="#081A5C"/>
<path d="M145.195 110.006C127.749 109.693 127.752 83.7362 145.196 83.4256C162.642 83.7388 162.639 109.696 145.195 110.006Z" fill="#081A5C"/>
<path d="M67.4142 154.453C67.375 154.327 67.3478 154.199 67.3331 154.068L62.2658 125.143C62.2584 125.069 62.2469 124.995 62.2315 124.922C62.1242 124.394 61.857 123.913 61.4663 123.544C61.0756 123.174 60.5805 122.934 60.0486 122.857L31.1543 122.983C30.6076 122.901 30.0491 122.996 29.5602 123.254C29.0714 123.513 28.678 123.921 28.4374 124.419C27.9675 125.4 27.5073 126.394 27.0569 127.403C25.2332 131.465 23.5549 135.761 22.0217 140.288C35.119 147.692 50.6255 152.745 67.4757 154.637L67.4142 154.453Z" fill="#2F2E41"/>
<path d="M95.6199 77.0498C95.5488 77.3625 95.5025 77.6804 95.4813 78.0004L70.612 92.3639L64.5672 88.88L58.123 97.326L68.2256 104.535C69.0417 105.117 70.0245 105.419 71.0264 105.394C72.0284 105.37 72.9954 105.021 73.7822 104.399L99.4267 84.1448C100.584 84.5737 101.844 84.6397 103.04 84.334C104.236 84.0283 105.31 83.3653 106.12 82.4334C106.931 81.5014 107.438 80.3446 107.576 79.1168C107.713 77.889 107.474 76.6484 106.89 75.56C106.306 74.4716 105.405 73.587 104.306 73.0239C103.208 72.4607 101.964 72.2457 100.741 72.4074C99.5174 72.5692 98.3721 73.1 97.4574 73.9292C96.5426 74.7585 95.9017 75.847 95.6199 77.0498Z" fill="#FFB8B8"/>
<path d="M70.2713 90.9287C70.1958 90.5613 70.0423 90.2145 69.821 89.9118C69.5998 89.6091 69.3161 89.3576 68.9891 89.1745L57.5776 82.7859C56.0612 81.6145 54.1428 81.0929 52.2428 81.3354C50.3429 81.5779 48.6166 82.5648 47.4423 84.0796C46.268 85.5944 45.7416 87.5136 45.9784 89.4163C46.2153 91.3191 47.1961 93.0502 48.7059 94.2302L57.804 103.689C58.0637 103.959 58.3785 104.17 58.7269 104.307C59.0753 104.444 59.4492 104.505 59.823 104.484C60.1969 104.464 60.562 104.363 60.8935 104.189C61.225 104.015 61.5151 103.771 61.7441 103.474L63.5159 101.173L64.1213 100.39L69.7815 93.0451C69.9882 92.777 70.1396 92.4705 70.227 92.1433C70.3377 91.7477 70.3529 91.3314 70.2713 90.9287Z" fill="#19185C"/>
<path d="M53.7487 71.4485C59.3016 65.8892 59.3016 56.8759 53.7487 51.3166C48.1958 45.7573 39.1928 45.7573 33.6399 51.3166C28.087 56.8759 28.087 65.8892 33.6399 71.4485C39.1928 77.0078 48.1958 77.0078 53.7487 71.4485Z" fill="#FFB8B8"/>
<path d="M61.6727 115.264C62.2436 114.409 65.8735 108.638 64.5003 101.875C64.3994 101.374 64.2729 100.878 64.1213 100.39C63.4742 98.3539 62.4405 96.4624 61.0771 94.819C61.0944 94.3657 61.0894 93.9197 61.0624 93.4763V93.4738C60.8617 90.3924 59.5559 87.4873 57.3853 85.2934C55.2147 83.0995 52.3256 81.7646 49.2498 81.5343L33.347 80.3245C31.3 80.1574 29.2432 80.4908 27.3535 81.296C25.4638 82.1011 23.7979 83.354 22.499 84.9466C22.1999 85.3096 21.9198 85.6879 21.6598 86.08L21.6588 86.0801L21.6581 86.0807L21.6575 86.0815L21.6574 86.0824C20.6547 87.5975 19.9893 89.3108 19.7065 91.1061C19.4237 92.9014 19.53 94.7365 20.0183 96.487L20.1538 97.0833L21.8493 104.526L24.6843 116.981L27.0567 127.403L27.3077 128.502C27.4401 129.077 27.7631 129.591 28.2243 129.959C28.6854 130.327 29.2575 130.528 29.8474 130.529C29.9892 130.53 30.1309 130.518 30.2708 130.495L61.0427 125.444C61.477 125.374 61.8862 125.195 62.2313 124.922C62.4386 124.756 62.6202 124.561 62.7703 124.343C62.9708 124.052 63.1096 123.724 63.1782 123.378C63.2468 123.031 63.2436 122.675 63.1689 122.33L61.6727 115.264Z" fill="#19185C"/>
<path d="M1.11265 157.301C0.590711 156.556 0.238359 155.705 0.0804072 154.808C-0.0775447 153.912 -0.0372534 152.992 0.198442 152.113C0.434138 151.233 0.859507 150.417 1.44458 149.72C2.02966 149.023 2.76022 148.463 3.58479 148.08L21.1052 94.1506L31.2587 98.9739L12.0885 151.484C12.6402 152.914 12.649 154.496 12.1132 155.932C11.5773 157.367 10.5341 158.556 9.18118 159.273C7.82826 159.99 6.25965 160.186 4.77256 159.822C3.28548 159.458 1.98326 158.561 1.11265 157.301Z" fill="#FFB8B8"/>
<path d="M31.1394 81.4111C29.2625 80.8457 27.2413 81.013 25.4825 81.8792C23.7238 82.7454 22.3579 84.2463 21.6598 86.0799L21.6588 86.0801L21.6581 86.0807L21.6575 86.0815L21.6574 86.0824C21.5933 86.2475 21.5343 86.42 21.4827 86.5924L19.9986 89.7436L15.5148 99.2662C15.3434 99.629 15.2522 100.025 15.2475 100.426C15.2428 100.827 15.3246 101.225 15.4875 101.592C15.6503 101.958 15.8903 102.286 16.191 102.551C16.4918 102.816 16.8462 103.014 17.23 103.129L18.1038 103.393L21.8493 104.526L28.4964 106.537L30.7113 107.207C31.095 107.323 31.4993 107.355 31.8964 107.3C32.2936 107.246 32.6744 107.106 33.0128 106.891C33.3512 106.676 33.6393 106.391 33.8575 106.054C34.0757 105.717 34.2188 105.337 34.2772 104.94L36.3248 91.0346C36.9065 89.0701 36.6876 86.9549 35.7159 85.1515C34.7442 83.3481 33.0988 82.0033 31.1394 81.4111Z" fill="#19185C"/>
<path d="M56.7508 56.2059C51.6841 60.6432 43.9059 61.6735 37.8609 58.7081C40.5764 61.9332 45.7334 77.8536 45.7334 77.8536C45.7334 77.8536 31.172 76.3215 29.1147 75.8811C16.9636 73.2798 21.3804 41.7744 34.3281 41.9334C36.5211 41.9604 38.4382 42.2259 39.8978 43.8646C40.8666 41.1458 43.9472 39.5443 46.8231 39.7516C49.6989 39.9589 52.2996 41.6883 54.1496 43.9023C55.6259 45.6948 56.6915 47.7896 57.2713 50.0391C57.8511 52.2887 57.931 54.6382 57.5052 56.9219L56.7508 56.2059Z" fill="#2F2E41"/>
<path d="M110.779 70.7275C93.3329 70.4143 93.3356 44.4573 110.78 44.1467C128.225 44.4599 128.223 70.4168 110.779 70.7275ZM110.779 44.9522C94.3902 45.2464 94.3928 69.6301 110.78 69.922C127.168 69.6277 127.166 45.2441 110.779 44.9522Z" fill="#081A5C"/>
<path d="M145.195 110.006C127.749 109.693 127.752 83.7362 145.196 83.4256C162.642 83.7388 162.639 109.696 145.195 110.006ZM145.195 84.2311C128.806 84.5253 128.809 108.909 145.196 109.201C161.584 108.907 161.582 84.523 145.195 84.2311Z" fill="#081A5C"/>
<path d="M121.23 98.9569C121.151 98.9592 121.072 98.9378 121.005 98.8955C120.938 98.8532 120.884 98.7918 120.852 98.7192C120.82 98.6465 120.809 98.5659 120.823 98.4875C120.836 98.409 120.872 98.3363 120.927 98.2786L122.266 96.8618C122.308 96.8173 122.331 96.758 122.329 96.6968C122.328 96.6357 122.302 96.5777 122.257 96.5356L120.835 95.1875C120.795 95.1503 120.764 95.1056 120.741 95.0561C120.719 95.0065 120.707 94.9531 120.706 94.8989C120.704 94.8447 120.713 94.7907 120.733 94.7401C120.752 94.6894 120.781 94.6431 120.818 94.6037C120.894 94.5247 120.997 94.4785 121.105 94.4751C121.214 94.4718 121.32 94.5115 121.4 94.5858L123.314 96.3766C123.352 96.4119 123.382 96.4543 123.403 96.5015C123.424 96.5486 123.436 96.5995 123.438 96.6512C123.439 96.7028 123.43 96.7543 123.412 96.8025C123.393 96.8508 123.365 96.8948 123.329 96.9321L121.509 98.8334C121.436 98.9098 121.336 98.9542 121.23 98.9569Z" fill="#2BDA1F"/>
<path d="M119.768 96.8949C119.724 96.9352 119.667 96.9583 119.608 96.9598L115.145 97.083C115.112 97.0839 115.08 97.0785 115.05 97.0669C115.02 97.0554 114.992 97.038 114.969 97.0158C114.945 96.9936 114.926 96.9669 114.913 96.9373C114.9 96.9078 114.893 96.8759 114.892 96.8435C114.891 96.8112 114.896 96.779 114.908 96.7487C114.919 96.7185 114.937 96.6908 114.959 96.6673C114.981 96.6438 115.008 96.6249 115.037 96.6118C115.067 96.5986 115.099 96.5914 115.131 96.5905L119.594 96.4673C119.644 96.4659 119.694 96.4799 119.736 96.5073C119.777 96.5348 119.81 96.5744 119.829 96.6209C119.848 96.6674 119.852 96.7186 119.841 96.7675C119.83 96.8165 119.804 96.8609 119.768 96.8949Z" fill="#2BDA1F"/>
<path d="M86.7765 59.678C86.6971 59.6803 86.6187 59.6589 86.5514 59.6166C86.4841 59.5743 86.4308 59.5129 86.3984 59.4403C86.366 59.3676 86.3558 59.287 86.3692 59.2085C86.3825 59.1301 86.4189 59.0574 86.4736 58.9997L87.8128 57.5829C87.8547 57.5384 87.8773 57.4791 87.8757 57.4179C87.874 57.3568 87.8481 57.2988 87.8038 57.2567L86.3809 55.9086C86.3416 55.8713 86.31 55.8267 86.2879 55.7772C86.2658 55.7276 86.2536 55.6742 86.2521 55.62C86.2506 55.5658 86.2598 55.5118 86.2792 55.4612C86.2985 55.4105 86.3276 55.3642 86.3649 55.3248C86.4399 55.2458 86.543 55.1996 86.6519 55.1962C86.7607 55.1929 86.8664 55.2326 86.9462 55.3069L88.8603 57.0977C88.898 57.133 88.9284 57.1754 88.9496 57.2226C88.9708 57.2697 88.9825 57.3206 88.9839 57.3723C88.9853 57.4239 88.9765 57.4754 88.9579 57.5236C88.9393 57.5719 88.9113 57.6159 88.8756 57.6532L87.0556 59.5546C86.9825 59.6309 86.8822 59.6753 86.7765 59.678Z" fill="#2BDA1F"/>
<path d="M85.3141 57.616C85.2705 57.6563 85.2137 57.6793 85.1543 57.6809L80.6914 57.8041C80.6591 57.805 80.6269 57.7995 80.5966 57.788C80.5664 57.7765 80.5388 57.7591 80.5153 57.7369C80.4918 57.7146 80.4729 57.688 80.4597 57.6584C80.4465 57.6288 80.4392 57.597 80.4383 57.5646C80.4374 57.5323 80.4429 57.5 80.4545 57.4698C80.466 57.4396 80.4834 57.4119 80.5057 57.3884C80.5279 57.3649 80.5546 57.346 80.5841 57.3328C80.6137 57.3197 80.6455 57.3124 80.6778 57.3116L85.1408 57.1884C85.1909 57.187 85.2402 57.201 85.2822 57.2284C85.3241 57.2559 85.3567 57.2955 85.3756 57.342C85.3944 57.3885 85.3986 57.4396 85.3877 57.4886C85.3767 57.5376 85.351 57.582 85.3141 57.616Z" fill="#2BDA1F"/>
<path d="M115.184 146.566C114.03 148.966 112.15 150.907 110.028 152.548C103.096 154.04 96.0526 154.962 88.9698 155.303C88.6253 155.32 88.2807 155.337 87.9337 155.349C86.0904 155.426 84.2332 155.464 82.3621 155.465C79.1088 155.465 75.8939 155.349 72.7176 155.118C72.5966 154.386 72.58 153.641 72.6683 152.905C73.0203 150.025 75.2032 147.379 78.0357 146.768C80.8683 146.157 84.097 147.85 84.956 150.619C85.431 145.277 85.9748 139.714 88.8123 135.166C91.3791 131.049 95.826 128.102 100.647 127.575C103.48 127.28 106.339 127.804 108.884 129.085C109.118 129.204 109.349 129.327 109.578 129.455C111.105 130.322 112.453 131.473 113.548 132.848C116.555 136.657 117.291 142.195 115.184 146.566Z" fill="#2BDA1F"/>
<path d="M109.578 129.455C109.584 129.52 109.573 129.585 109.546 129.644C109.52 129.703 109.478 129.754 109.425 129.793C100.884 136.754 93.9125 145.448 88.9699 155.303C88.6254 155.32 88.2808 155.337 87.9338 155.349C88.3718 154.46 88.8263 153.58 89.2972 152.708C91.743 148.197 94.6202 143.933 97.8884 139.978C101.156 136.02 104.804 132.393 108.781 129.149C108.812 129.124 108.847 129.102 108.884 129.085C108.953 129.056 109.028 129.042 109.104 129.045C109.179 129.048 109.253 129.068 109.319 129.104C109.386 129.139 109.444 129.189 109.488 129.25C109.533 129.311 109.564 129.381 109.578 129.455Z" fill="#F2F2F2"/>
<path d="M117.539 53.6137L113.219 50.5909C112.041 49.7658 110.233 49.8108 109.101 50.6884L105.343 53.6212C104.593 54.2063 104 55.4064 104 56.3515V61.5271C104 63.4398 105.553 65 107.465 65H115.551C117.464 65 119.017 63.4473 119.017 61.5346V56.449C119.017 55.4364 118.364 54.1913 117.539 53.6137ZM112.071 61.9997C112.071 62.3072 111.816 62.5622 111.508 62.5622C111.201 62.5622 110.946 62.3072 110.946 61.9997V59.7494C110.946 59.4419 111.201 59.1868 111.508 59.1868C111.816 59.1868 112.071 59.4419 112.071 59.7494V61.9997Z" fill="#2BDA1F"/>
<path d="M139.4 92.8C138.072 92.8 137 93.872 137 95.2V101.6C137 102.928 138.072 104 139.4 104H140.6C141.48 104 142.2 103.28 142.2 102.4V94.4C142.2 93.52 141.48 92.8 140.6 92.8H139.4ZM140.2 100C140.2 100.328 139.928 100.6 139.6 100.6C139.272 100.6 139 100.328 139 100V96.8C139 96.472 139.272 96.2 139.6 96.2C139.928 96.2 140.2 96.472 140.2 96.8V100Z" fill="#2BDA1F"/>
<path d="M150.6 88H145.8C144.472 88 143.4 89.072 143.4 90.4V101.6C143.4 102.928 144.472 104 145.8 104H146.2C146.424 104 146.6 103.824 146.6 103.6V100.8C146.6 100.36 146.96 100 147.4 100H149C149.44 100 149.8 100.36 149.8 100.8V103.6C149.8 103.824 149.976 104 150.2 104H150.6C151.928 104 153 102.928 153 101.6V90.4C153 89.072 151.928 88 150.6 88ZM147.2 96.8C147.2 97.128 146.928 97.4 146.6 97.4C146.272 97.4 146 97.128 146 96.8V92.8C146 92.472 146.272 92.2 146.6 92.2C146.928 92.2 147.2 92.472 147.2 92.8V96.8ZM150.4 96.8C150.4 97.128 150.128 97.4 149.8 97.4C149.472 97.4 149.2 97.128 149.2 96.8V92.8C149.2 92.472 149.472 92.2 149.8 92.2C150.128 92.2 150.4 92.472 150.4 92.8V96.8Z" fill="#2BDA1F"/>
</g>
<defs>
<clipPath id="clip0_11_693">
<rect width="184" height="160" fill="white"/>
</clipPath>
</defs>
</svg>
